<svg xmlns="http://www.w3.org/2000/svg" xml:space="preserve" width="1500" height="251" data-id="lg_scWB381POQ8OV6mtZA" data-version="1" viewBox="0 0 1500 251"><g data-padding="20"><g transform="translate(10 4.474)scale(.96435)"><rect width="354.595" height="250.905" x="189.804" y="-399.863" fill="none" rx="0" ry="0" transform="translate(503.21 399.91)"/><path fill="#f4f3f0" d="m705.951 81.44-8.29 5.61q2.8 5.62 7.26 10.56 4.45 4.94 10.37 7.93 5.91 2.99 12.87 2.99 5.12 0 9.82-1.71 4.69-1.71 8.42-4.88 3.72-3.17 5.85-7.69 2.14-4.51 2.14-10.12 0-5.86-2.08-10.07-2.07-4.21-5.3-7.2-3.24-2.99-7.02-4.94t-7.2-3.17q-7.44-2.56-11.77-5.19-4.33-2.62-6.16-5.61t-1.83-6.52q0-4.15 3.17-7.51 3.17-3.35 10.13-3.35 5 0 8.48 1.95 3.47 1.95 5.91 5t4.03 6.22l8.9-5.12q-2.07-4.51-5.73-8.6t-8.84-6.71q-5.19-2.62-12.14-2.62-7.2 0-12.81 2.86-5.62 2.87-8.79 7.87t-3.17 11.35q0 5.85 2.26 9.88 2.25 4.03 5.79 6.77 3.54 2.75 7.44 4.51 3.91 1.77 7.08 2.87 4.88 1.71 9.21 3.84 4.33 2.14 7.02 5.56 2.68 3.41 2.68 9.15 0 5.85-4.15 9.63-4.15 3.79-10.98 3.79-5.12 0-9.15-2.2-4.02-2.2-7.26-6.1-3.23-3.9-6.16-9.03m72.22-69.29h-9.76v95.16h9.76Zm32.94 39.04h-12.2l-24.4 23.18 26.84 32.94h12.2l-26.84-32.94ZM822.701 28q0 2.68 2.01 4.69 2.01 2.02 4.7 2.02 2.8 0 4.75-2.02 1.96-2.01 1.96-4.69 0-2.81-1.96-4.76-1.95-1.95-4.75-1.95-2.69 0-4.7 1.95t-2.01 4.76m11.59 23.18h-9.76v56.12h9.76Zm29.89-39.03h-9.76v95.16h9.76Zm28.06 0h-9.76v95.16h9.76Zm-183.37 165.5q0-10 4.45-17.51 4.46-7.5 11.65-11.77 7.2-4.27 15.62-4.27 6.1 0 11.16 1.59 5.07 1.58 9.21 4.45 4.15 2.87 7.08 6.65v-13.67q-5.37-4.75-11.71-7.07-6.35-2.32-15.74-2.32-8.91 0-16.65 3.23-7.75 3.24-13.61 9.15-5.85 5.92-9.15 13.97-3.29 8.05-3.29 17.57t3.29 17.57q3.3 8.05 9.15 13.97 5.86 5.91 13.61 9.15 7.74 3.23 16.65 3.23 9.39 0 15.74-2.32 6.34-2.32 11.71-7.07v-13.67q-2.93 3.78-7.08 6.65-4.14 2.87-9.21 4.45-5.06 1.59-11.16 1.59-8.42 0-15.62-4.27-7.19-4.27-11.65-11.83-4.45-7.57-4.45-17.45m86.62 42.7v-56.12h-9.76v56.12Zm16.96-45.38 5.37-8.06q-2.2-2.31-4.82-3.11-2.63-.79-5.68-.79-3.9 0-7.68 3.05t-6.16 8.24q-2.38 5.18-2.38 11.89h4.39q0-4.03.79-7.2.8-3.17 2.87-5t5.73-1.83q2.44 0 4.03.67t3.54 2.14m19.52 28.06q0-3.05 1.46-5.25 1.47-2.2 4.46-3.42 2.98-1.22 7.74-1.22 5.13 0 9.64 1.29 4.51 1.28 8.78 4.2v-5.73q-.85-1.1-3.29-2.87t-6.53-3.17q-4.08-1.4-10.18-1.4-10.37 0-16.17 4.94-5.79 4.94-5.79 13.11 0 5.74 2.68 9.76 2.68 4.03 7.14 6.17 4.45 2.13 9.57 2.13 4.64 0 9.34-1.71 4.69-1.71 7.93-5.24 3.23-3.54 3.23-8.91l-1.95-7.32q0 4.39-2.14 7.75-2.13 3.35-5.73 5.18t-8.11 1.83q-3.54 0-6.29-1.16-2.74-1.16-4.27-3.47-1.52-2.32-1.52-5.49m-6.22-33.07 4.75 7.2q1.35-.97 3.66-2.32 2.32-1.34 5.68-2.31 3.35-.98 7.5-.98 2.56 0 4.88.49t4.09 1.58q1.77 1.1 2.74 2.99.98 1.89.98 4.82v38.92h9.76v-40.26q0-5.49-2.75-9.27-2.74-3.78-7.68-5.8-4.94-2.01-11.53-2.01-7.81 0-13.36 2.32t-8.72 4.63m84.3-5.73h-28.06v9.15h28.06Zm-.98-27.33 5.37-8.05q-.85-1.22-2.38-2.32-1.52-1.1-3.6-1.83-2.07-.73-4.76-.73-5.12 0-8.72 2.14-3.6 2.13-5.55 6.4t-1.95 10.98v76.86h9.76v-75.64q0-4.03.73-6.47t2.01-3.47q1.28-1.04 3.11-1.04 1.47 0 3.12.55 1.64.55 2.86 2.62m31.6 27.33h-28.06v9.15h28.06Zm-9.15-19.52h-9.76v75.64h9.76Zm40.63 76.86q9.02 0 15.67-3.6t11.04-10.67l-7.93-5.01q-3.05 5.13-7.44 7.63t-10.12 2.5q-5.74 0-9.76-2.44-4.03-2.44-6.1-7.08-2.08-4.63-2.08-11.22.12-6.47 2.26-10.92 2.13-4.45 6.1-6.83 3.96-2.38 9.58-2.38 4.75 0 8.29 2.07 3.54 2.08 5.55 5.74 2.02 3.66 2.02 8.66 0 .85-.37 2.14-.37 1.28-.73 1.89l3.9-5.62h-40.26v8.3h47.95q0-.24.06-1.16.06-.91.06-1.77 0-8.9-3.17-15.37t-9.09-9.94q-5.92-3.48-14.21-3.48-8.3 0-14.58 3.66-6.29 3.66-9.76 10.25-3.48 6.59-3.48 15.37 0 8.66 3.36 15.25 3.35 6.59 9.39 10.31t13.85 3.72m50.88-1.22v-56.12h-9.76v56.12Zm16.96-45.38 5.37-8.06q-2.2-2.31-4.82-3.11-2.63-.79-5.68-.79-3.9 0-7.68 3.05t-6.16 8.24q-2.38 5.18-2.38 11.89h4.39q0-4.03.79-7.2.8-3.17 2.87-5t5.73-1.83q2.44 0 4.03.67t3.54 2.14m-524.97-38.402 24.048-32.458-2.348-1.915-27.993 30.873h6.293Zm-15.034 15.206a4.594 4.594 0 1 0 0 9.188 4.594 4.594 0 1 0 0-9.188"/><path fill="#f4f3f0" d="M512.847 140.83v-5.588h-17.453v6.221q2.088-.619 4.334-.633Zm-10.743-40.42h3.514v32.672h-3.514Zm91.311 51.364a4.594 4.594 0 1 0 0 9.188 4.594 4.594 0 1 0 0-9.187"/><path fill="#f4f3f0" d="M593.66 142.99h-93.93a13.392 13.392 0 0 0 0 26.74h93.944a13.392 13.392 0 0 0 0-26.74m-93.687 20.13a6.768 6.768 0 1 1 .015-13.535 6.768 6.768 0 1 1 0 13.536m93.427 0a6.768 6.768 0 1 1 0-13.536 6.768 6.768 0 0 1 0 13.536m6.898-81.432c-3.068.504-11.52 3.355-11.52 19.44v33.51h11.52Zm2.074 61.848v-6.724h-22.623v4.032h13.896a15.56 15.56 0 0 1 8.726 2.692m-19.497-8.899a7.2 7.2 0 0 1 0-3.399c.26-1.728.576-3.672-.864-6.32a8.64 8.64 0 0 0-4.896-4.12c-1.47-.633-2.736-1.18-3.83-3.168-1.11-2.016-.894-3.37-.634-4.953.288-1.728.576-3.687-.864-6.336a8.64 8.64 0 0 0-4.896-4.119c-1.47-.633-2.736-1.18-3.845-3.168-1.095-2.016-.879-3.384-.62-4.968.274-1.728.577-3.686-.863-6.336l-1.9 1.051c1.093 1.988.877 3.356.618 4.94-.274 1.728-.576 3.686.864 6.336a8.64 8.64 0 0 0 4.896 4.132c1.47.634 2.736 1.181 3.845 3.168s.878 3.37.633 4.954c-.288 1.728-.59 3.686.864 6.336a8.64 8.64 0 0 0 4.882 4.118c1.47.634 2.736 1.181 3.845 3.168s.864 3.37.62 4.954c-.174 1.094-.36 2.304-.1 3.744"/><path fill="#2f84ff" stroke="#f4f3f0" stroke-width="5.55" d="M648.621 20.104v206.133"/></g><path fill="transparent" stroke="transparent" d="M469.5 0h561v251h-561z"/></g></svg>